<svg width="279" height="60" viewBox="0 0 279 60" fill="none" xmlns="http://www.w3.org/2000/svg">
<path d="M230.425 3.1748H215.874V12.3338H230.425V3.1748Z" fill="#E197FA"/>
<path d="M230.424 45.5859V58.1394H222.693C224.794 53.6997 227.392 49.4979 230.424 45.5859Z" fill="#4727E4"/>
<path d="M230.425 16.5029V45.584C227.393 49.496 224.795 53.6977 222.694 58.1375H215.874V16.5029H230.425Z" fill="#E197FA"/>
<path d="M29.7238 16.4932V25.9213H21.6929V39.9754C16.6528 39.2095 11.7887 37.9883 7.13163 36.3635V25.9213H0.466797V16.4932H7.13163L11.2092 6.67188H21.6825V16.4932H29.7238Z" fill="#4727E4"/>
<path d="M28.4717 49.9009V58.1492H12.5755C9.57423 58.1492 7.14219 55.7171 7.14219 52.7159H7.13184V36.3643C11.7889 37.9891 16.653 39.2103 21.6931 39.9761V47.8414C21.6931 48.9798 22.6141 49.9009 23.7422 49.9009H28.4717Z" fill="#E197FA"/>
<path d="M48.6319 16.5137V39.8716C44.1508 40.6064 39.535 40.9894 34.8262 40.9894C34.5778 40.9894 34.3294 40.9893 34.0811 40.979V16.5137H48.6319Z" fill="#4727E4"/>
<path d="M95.1714 14.9102C86.83 24.2244 75.9221 31.5723 63.4307 36.0534V16.535H77.9815V25.9837C80.3722 19.4431 85.8883 14.9102 93.381 14.9102H95.1714Z" fill="#4727E4"/>
<path d="M107.311 27.3395V58.1281H92.7606V31.8206C92.7606 30.1855 92.1086 28.7366 91.0323 27.6603C90.2561 26.8841 89.2729 26.3356 88.1863 26.0976C87.762 25.9837 87.3377 25.9423 86.8823 25.9423C83.0324 25.9423 79.7724 28.364 78.5306 31.7585C78.1787 32.7107 77.982 33.7559 77.982 34.8426V58.1385H63.4312V48.6587C61.0405 55.1993 55.5244 59.7322 48.0317 59.7322H46.3034C44.1508 59.7322 42.1016 59.163 40.3319 58.1592C36.5959 56.0376 34.0811 51.9704 34.0811 47.3133V40.9796C34.3294 40.99 34.5778 40.99 34.8262 40.99C39.535 40.99 44.1508 40.607 48.6319 39.8722V42.8425C48.6319 44.4776 49.2839 45.9265 50.3602 47.0028C51.4262 48.0688 52.8854 48.7311 54.5206 48.7311C59.4364 48.7311 63.4208 44.7467 63.4208 39.8309V37.4195H63.4312V36.0534C75.9226 31.5723 86.8305 24.2244 95.1719 14.9102C96.9002 14.9205 98.5768 15.2931 100.067 15.9968C100.409 16.1521 100.719 16.3176 101.05 16.4936C104.786 18.6151 107.301 22.6824 107.301 27.3395H107.311Z" fill="#E197FA"/>
<path d="M278.683 27.3499V58.1386H264.132V31.8311C264.132 30.1959 263.48 28.747 262.403 27.6707C261.337 26.6048 259.878 25.9424 258.243 25.9424C253.327 25.9424 249.343 29.9268 249.343 34.8427V58.1282H234.792V40.4415C244.934 29.5646 258.626 21.513 274.243 17.7666C274.698 18.1495 275.133 18.5635 275.526 19.0188C277.472 21.2129 278.672 24.1417 278.672 27.3499H278.683Z" fill="#4727E4"/>
<path d="M274.243 17.7663C258.626 21.5127 244.934 29.5643 234.792 40.4413V16.5244H249.343V26.0042C251.734 19.4636 257.25 14.9307 264.742 14.9307H266.471C268.623 14.9307 270.672 15.4999 272.442 16.5037C273.084 16.8659 273.684 17.2903 274.243 17.7663Z" fill="#E197FA"/>
<path d="M196.956 23.7276C193.986 18.3978 189.215 14.9205 183.833 14.9205H180.304C171.29 14.9205 163.983 24.6073 163.983 36.5605V38.0715C163.983 50.0247 171.29 59.7115 180.304 59.7115H183.833C189.225 59.7115 193.975 56.2445 196.956 50.9044V58.1281H211.507V0.69043H196.956V23.7276ZM196.956 37.7817C196.956 45.1296 193.406 51.0907 189.028 51.0907H187.31C182.933 51.0907 179.383 45.1296 179.383 37.7817V36.8606C179.383 29.5128 182.933 23.5516 187.31 23.5516H189.028C193.406 23.5516 196.956 29.5128 196.956 36.8606V37.7817Z" fill="#E197FA"/>
<path d="M159.264 32.6173C158.819 30.237 158.011 28.0016 156.842 25.9525C154.451 21.699 150.663 18.3562 146.089 16.5037C143.585 15.4792 140.842 14.9307 137.975 14.9307H133.308C130.452 14.9307 127.699 15.4792 125.194 16.5037C120.63 18.3562 116.843 21.699 114.452 25.9525C113.303 28.0016 112.475 30.2267 112.03 32.6173C111.782 33.8903 111.668 35.2253 111.668 36.5707V38.1023C111.668 39.7582 111.844 41.3623 112.216 42.8836C113.779 49.8486 118.695 55.5096 125.194 58.1383C127.699 59.1628 130.441 59.7113 133.308 59.7113H137.975C140.832 59.7113 143.585 59.1628 146.089 58.1383C152.568 55.5096 157.504 49.8486 159.067 42.8836H144.858C144.858 42.9561 144.827 43.0182 144.816 43.0803C144.816 43.1527 144.816 43.2355 144.775 43.2873C144.775 43.3287 144.775 43.3597 144.744 43.4011C144.702 43.5977 144.661 43.784 144.589 43.9806C144.257 45.1087 143.667 46.1229 142.871 46.9405C142.757 47.0647 142.633 47.1889 142.529 47.282C142.477 47.3338 142.405 47.4062 142.353 47.4476C142.27 47.5304 142.177 47.6029 142.074 47.665C141.918 47.7995 141.774 47.9133 141.618 48.0065C141.484 48.0996 141.339 48.1824 141.194 48.2548C141.122 48.3066 141.039 48.3376 140.977 48.379C140.863 48.4308 140.739 48.5032 140.635 48.5446C140.025 48.824 139.373 49.0103 138.7 49.1138C138.565 49.1449 138.441 49.1552 138.296 49.1656C138.058 49.1966 137.841 49.207 137.603 49.207H136.123C135.864 49.207 135.585 49.207 135.326 49.1656C135.202 49.1656 135.078 49.1345 134.964 49.1138C134.798 49.1138 134.633 49.0724 134.467 49.0414C134.374 49.0414 134.27 49 134.177 48.9896C133.96 48.9379 133.732 48.8965 133.525 48.8241C133.474 48.8241 133.432 48.793 133.391 48.7826C133.173 48.7102 132.946 48.6274 132.739 48.5343C132.449 48.4204 132.17 48.2962 131.901 48.1617C131.745 48.0789 131.58 47.9858 131.445 47.903C131.393 47.8616 131.331 47.8512 131.29 47.8098C131.135 47.696 130.969 47.6028 130.824 47.4786C130.772 47.4373 130.731 47.4269 130.69 47.3855C130.524 47.2613 130.358 47.1371 130.203 46.9819C129.665 46.5266 129.199 45.9987 128.775 45.4295C128.62 45.2329 128.516 45.0466 128.392 44.8396C128.299 44.6844 128.196 44.5188 128.113 44.3532C127.999 44.1462 127.895 43.9392 127.813 43.7219C127.699 43.4632 127.595 43.1838 127.512 42.9044C127.233 42.0454 127.088 41.1243 127.088 40.1515V38.1023H159.636V36.5707C159.636 35.215 159.512 33.8903 159.274 32.6173H159.264ZM127.233 32.6173H127.223C127.916 28.6329 131.217 24.8244 135.192 24.8244H136.837C141.204 24.8244 143.719 29.5333 143.719 32.6173H127.233Z" fill="#E197FA"/>
</svg>
